<?xml version="1.0" standalone="no"?><!DOCTYPE svg PUBLIC "-//W3C//DTD SVG 1.1//EN" "http://www.w3.org/Graphics/SVG/1.1/DTD/svg11.dtd"><svg t="1713247025588" class="icon" viewBox="0 0 1024 1024" version="1.1" xmlns="http://www.w3.org/2000/svg" p-id="2463" xmlns:xlink="http://www.w3.org/1999/xlink" width="200" height="200"><path d="M804.6592 782.21312c-24.8064-41.97376-66.7648-70.61504-66.7648-70.61504 5.71904 26.71616 36.78208 79.95392 36.78208 79.95392l121.02656 164.85888s20.57728 1.31584 22.01088-17.09568l-113.05472-157.10208z" fill="#FFFFFF" p-id="2464"></path><path d="M896.59392 964.11136c-0.00512 0-0.00512 0 0 0-0.88064 0-1.3824-0.03584-1.3824-0.03584a7.81312 7.81312 0 0 1-5.69856-3.11808l-121.03168-164.85888a6.69696 6.69696 0 0 1-0.44544-0.67584c-1.29024-2.21696-31.744-54.61504-37.65248-82.21184a7.68 7.68 0 0 1 11.84256-7.95648c1.7664 1.20832 43.4688 29.96736 68.86912 72.75008l112.85504 156.8256c1.05984 1.46944 1.56672 3.2768 1.41824 5.07904-1.38752 17.86368-16.36864 24.20224-28.7744 24.20224z m-115.4816-176.77312l118.37952 161.24928c4.35712-0.50688 8.70912-2.34496 10.13248-7.36768l-111.20128-154.5216a6.1952 6.1952 0 0 1-0.37376-0.57856c-12.76928-21.60128-30.47424-39.7056-44.10368-51.8144 10.17856 23.4496 25.26208 49.74592 27.16672 53.03296z" fill="#1D1E21" p-id="2465"></path><path d="M817.0752 627.4304c40.39168 54.19008 13.52704 120.6528-41.7536 161.91488-55.26528 41.1904-122.72128 40.27904-163.16416-13.96224-40.4224-54.20032-20.29568-122.7008 34.97984-163.92704 55.26016-41.24672 129.52064-38.22592 169.93792 15.9744z" fill="#FFFFFF" p-id="2466"></path><path d="M694.97856 826.05056c-35.2256 0-66.82624-16.36352-88.97536-46.07488-20.45952-27.42784-27.45856-60.52352-19.72224-93.18912 7.34208-30.96576 27.32032-59.904 56.25856-81.4848 25.64608-19.13856 56.1664-29.68576 85.92896-29.68576 38.4 0 72.04864 16.768 94.75584 47.22688 39.57248 53.08928 21.76 124.08832-43.3152 172.66176-26.81344 19.97824-56.17664 30.54592-84.93056 30.54592z m33.49504-235.07456c-26.48064 0-53.7344 9.46176-76.74368 26.63424-26.05568 19.4304-43.98592 45.25568-50.49344 72.71424-6.77376 28.57472-0.8704 56.40192 17.08032 80.47104 19.46112 26.10176 45.97248 39.89504 76.66688 39.89504 25.41568 0 51.6096-9.50784 75.7504-27.50464 47.30368-35.30752 80.06144-97.66912 40.18688-151.16288-19.74272-26.47552-49.01376-41.04704-82.44736-41.04704z" fill="#1D1E21" p-id="2467"></path><path d="M724.1984 503.02464c44.17024 59.25888 14.79168 131.93728-45.66016 177.05984-60.43648 45.04064-134.20032 44.04736-178.42688-15.26784-44.20096-59.26912-22.19008-134.17472 38.25152-179.26144 60.43136-45.10208 141.63968-41.79968 185.83552 17.46944z" fill="#FFFFFF" p-id="2468"></path><path d="M590.68416 719.49824c-38.29248 0-72.64256-17.792-96.73216-50.09408-44.51328-59.67872-27.76576-139.59168 39.81824-190.0032 27.91936-20.8384 61.13792-32.31744 93.5424-32.31744 41.7536 0 78.35136 18.23744 103.04 51.3536 43.01824 57.70752 23.59808 134.9376-47.22176 187.80672-29.19936 21.75488-61.16352 33.2544-92.44672 33.2544z m36.62848-257.05472c-29.11232 0-59.06944 10.3936-84.35712 29.26592-60.45696 45.09696-75.88352 115.96288-36.68992 168.51456 21.42208 28.72832 50.61632 43.91424 84.41344 43.91424 27.95008 0 56.73984-10.4448 83.26656-30.21312 52.00384-38.81472 87.9872-107.4176 44.08832-166.30784-21.71392-29.1328-53.93408-45.17376-90.72128-45.17376z" fill="#1D1E21" p-id="2469"></path><path d="M553.55904 569.728L351.5904 294.00576l21.97504-17.21344 197.72928 278.90688s-1.37216 12.4672-17.73568 14.0288z" fill="#FFFFFF" p-id="2470"></path><path d="M553.55904 577.408a7.68 7.68 0 0 1-6.1952-3.13856L345.3952 298.54208a7.66976 7.66976 0 0 1 1.4592-10.58304l21.97504-17.21344a7.68512 7.68512 0 0 1 10.99776 1.60256l197.72928 278.912a7.68 7.68 0 0 1 1.37216 5.27872c-0.71168 6.46144-6.77376 19.1232-24.64256 20.83328a6.912 6.912 0 0 1-0.72704 0.03584zM362.17856 295.46496l194.71872 265.82528c3.3536-1.05984 5.05856-2.85184 5.9136-4.27008L371.95776 287.80544l-9.7792 7.65952z" fill="#1D1E21" p-id="2471"></path><path d="M557.696 567.64416l-46.08512-58.07104 5.52448-5.50912 45.16352 61.77792c-0.00512 0-1.83296 3.65056-4.60288 1.80224z" fill="#FFFFFF" p-id="2472"></path><path d="M559.25248 575.8464a10.4448 10.4448 0 0 1-5.8112-1.81248 7.54688 7.54688 0 0 1-1.76128-1.6128l-46.08512-58.07104a7.68 7.68 0 0 1 0.59392-10.2144l5.52448-5.50912a7.69024 7.69024 0 0 1 11.6224 0.90624l45.16352 61.7728c1.70496 2.33472 1.95584 5.43744 0.65024 8.00768l-0.12288 0.2304c-2.14528 3.94752-5.79584 6.30272-9.77408 6.30272z" fill="#1D1E21" p-id="2473"></path><path d="M523.19232 504.77056l43.0592 58.3936 3.05664-3.79392-43.02848-59.96032z" fill="#FFFFFF" p-id="2474"></path><path d="M566.25152 570.84416h-0.16384a7.69536 7.69536 0 0 1-6.016-3.11808l-43.0592-58.39872a7.68 7.68 0 0 1-0.47616-8.39168l3.09248-5.36064a7.68 7.68 0 0 1 6.27712-3.83488c2.5856-0.18944 5.09952 1.07008 6.62016 3.19488l43.02848 59.9552a7.68 7.68 0 0 1-0.26112 9.29792l-3.06176 3.79392a7.68 7.68 0 0 1-5.98016 2.86208z" fill="#1D1E21" p-id="2475"></path><path d="M619.66848 377.96352c46.08 61.81376 15.43168 137.63072-47.63136 184.69888-63.04256 46.98624-139.98592 45.94688-186.12224-15.9232-46.11072-61.82912-23.14752-139.96544 39.90016-186.99264 63.03744-47.05792 147.75296-43.61216 193.85344 18.21696z" fill="#FFFFFF" p-id="2476"></path><path d="M480.39424 603.44832c-39.8336 0-75.5712-18.5088-100.6336-52.1216-46.31552-62.1056-28.8768-145.26976 41.46688-197.73952 29.07136-21.70368 63.65696-33.65376 97.38752-33.65376 43.4432 0 81.52576 18.97984 107.2128 53.43744 52.23936 70.07232 11.11552 150.43072-49.19296 195.44064-30.40256 22.66112-63.68256 34.6368-96.24064 34.6368z m38.21568-268.14976c-30.4384 0-61.76256 10.86976-88.20224 30.60736-63.21152 47.15008-79.3344 121.27232-38.33856 176.24576 22.41024 30.0544 52.95104 45.94176 88.32 45.94176 29.22496 0 59.32544-10.92096 87.05024-31.5904 54.38464-40.58624 92.00128-112.3328 46.06976-173.94688-22.71744-30.47424-56.4224-47.2576-94.8992-47.2576z" fill="#1D1E21" p-id="2477"></path><path d="M386.29888 298.3168c-14.24384-31.27808 13.0816-84.9664 52.60288-85.78048 55.936-1.06496 29.88544 80.39936 31.6416 108.96896" fill="#FFFFFF" p-id="2478"></path><path d="M470.53312 329.18528a7.68 7.68 0 0 1-7.65952-7.20896c-0.44544-7.26528 0.64512-16.82944 1.91488-27.89888 2.59584-22.72256 6.15424-53.84704-5.71904-66.90304-4.41344-4.85376-10.9056-7.10144-20.02432-6.95808-14.58176 0.30208-28.60032 9.46176-38.46144 25.13408-10.39872 16.53248-13.33248 36.54144-7.296 49.78688a7.68 7.68 0 0 1-13.98272 6.36416c-8.21248-18.03264-4.96128-43.28448 8.27392-64.32768 12.65664-20.12672 31.30368-31.90272 51.15904-32.31232 13.6192-0.21504 24.22784 3.76832 31.68768 11.9808 16.55808 18.20672 12.70784 51.90144 9.61536 78.976-1.13664 9.92256-2.20672 19.29728-1.8432 25.216a7.68 7.68 0 0 1-7.66464 8.15104z" fill="#1D1E21" p-id="2479"></path><path d="M379.04384 288.5888c-14.23872-31.28832 13.09184-84.98688 52.5824-85.73952 55.95136-1.09056 29.91104 80.32768 31.67744 108.91776" fill="#FFFFFF" p-id="2480"></path><path d="M463.29344 319.44704a7.68 7.68 0 0 1-7.65952-7.20896c-0.45056-7.2704 0.64-16.83968 1.90464-27.91936 2.59072-22.7072 6.13888-53.80608-5.72928-66.84672-4.41856-4.85376-11.01312-7.0656-20.03968-6.94784-14.55616 0.27648-28.55936 9.40032-38.40512 25.0368-10.42432 16.54272-13.37344 36.57216-7.33184 49.8432a7.68 7.68 0 1 1-13.9776 6.35904c-8.2176-18.05824-4.95616-43.33568 8.32-64.39424 12.65664-20.08576 31.28832-31.82592 51.10272-32.2048 13.63968-0.34816 24.22784 3.75808 31.69792 11.96544 16.55808 18.19136 12.71296 51.8656 9.63072 78.9248-1.13152 9.92768-2.2016 19.30752-1.83808 25.23136a7.67488 7.67488 0 0 1-7.67488 8.16128z" fill="#1D1E21" p-id="2481"></path><path d="M342.07232 332.44672s24.96512-38.48192 40.064-44.57472l-22.74816 6.12864c-0.00512-0.00512-13.952 21.74464-17.31584 38.44608z" fill="#FFFFFF" p-id="2482"></path><path d="M342.07232 340.12672a7.68 7.68 0 0 1-7.5264-9.19552c1.536-7.63392 5.11488-16.89088 10.62912-27.51488 7.54688-14.52544 9.32864-16.77824 13.06112-17.06496l21.90336-5.89824a7.68 7.68 0 0 1 4.87424 14.5408c-8.84736 3.56864-26.66496 26.496-36.49536 41.63072a7.68 7.68 0 0 1-6.44608 3.50208z" fill="#1D1E21" p-id="2483"></path><path d="M522.60864 246.07232c48.4608 65.01376 16.2304 144.74752-50.09408 194.25792-66.304 49.41824-147.23072 48.32256-195.75296-16.74752-48.49664-65.024-24.3456-147.20512 41.96352-196.66944 66.29888-49.48992 155.392-45.87008 203.88352 19.15904z" fill="#FFFFFF" p-id="2484"></path><path d="M376.13056 482.83136c-41.76384 0-79.24224-19.40992-105.5232-54.656-48.57856-65.13152-30.27456-152.36096 43.52512-207.41632 30.50496-22.77376 66.80064-35.31264 102.18496-35.31264 45.56288 0 85.49888 19.90144 112.44544 56.0384 54.76864 73.472 11.61728 157.7728-51.65568 205.0048-31.90272 23.77216-66.82112 36.34176-100.97664 36.34176z m40.192-282.03008c-32.1024 0-65.1264 11.45856-92.99968 32.26624-66.66752 49.73056-83.6608 127.9232-40.40192 185.92256 23.6544 31.7184 55.8848 48.48128 93.21472 48.48128 30.82752 0 62.5664-11.51488 91.79648-33.29536 57.344-42.8032 96.98816-118.49216 48.52736-183.51104-23.98208-32.1536-59.5456-49.86368-100.13696-49.86368z" fill="#1D1E21" p-id="2485"></path><path d="M301.39904 177.024c-24.8064-41.97376-66.7648-70.61504-66.7648-70.61504 5.71904 26.71616 36.78208 79.95392 36.78208 79.95392l75.25376 102.7328s20.57728 1.31584 22.01088-17.09568l-67.28192-94.976z" fill="#FFFFFF" p-id="2486"></path><path d="M347.56096 296.79616c-0.88064 0-1.3824-0.03584-1.3824-0.03584a7.81312 7.81312 0 0 1-5.70368-3.12832L265.22112 190.8992a6.18496 6.18496 0 0 1-0.4352-0.6656c-1.29536-2.21696-31.75424-54.61504-37.6576-82.21696a7.68 7.68 0 0 1 11.83744-7.95136c1.7664 1.2032 43.48416 29.97248 68.88448 72.77568l67.0976 94.72c1.03936 1.46432 1.52576 3.24608 1.38752 5.03296-1.38752 17.86368-16.36864 24.20224-28.7744 24.20224zM277.85728 182.15424l72.60672 99.1232c4.36224-0.50688 8.72448-2.3552 10.13248-7.3984l-65.46432-92.416a7.24992 7.24992 0 0 1-0.34304-0.53248c-12.76928-21.6064-30.47936-39.7056-44.1088-51.81952 10.18368 23.45984 25.27744 49.7664 27.17696 53.0432z" fill="#1D1E21" p-id="2487"></path><path d="M512.19456 107.25888m-25.35936 0a25.35936 25.35936 0 1 0 50.71872 0 25.35936 25.35936 0 1 0-50.71872 0Z" fill="#FFFFFF" p-id="2488"></path><path d="M512.19456 140.29824c-18.21696 0-33.03936-14.8224-33.03936-33.03936s14.8224-33.03936 33.03936-33.03936c18.22208 0 33.03936 14.8224 33.03936 33.03936s-14.81728 33.03936-33.03936 33.03936z m0-50.71872a17.69984 17.69984 0 0 0-17.67936 17.67936c0 9.74848 7.93088 17.67936 17.67936 17.67936s17.67936-7.93088 17.67936-17.67936a17.69984 17.69984 0 0 0-17.67936-17.67936z" fill="#1D1E21" p-id="2489"></path><path d="M405.53984 651.36128m-32.14336 0a32.14336 32.14336 0 1 0 64.28672 0 32.14336 32.14336 0 1 0-64.28672 0Z" fill="#FFFFFF" p-id="2490"></path><path d="M405.53984 691.18464c-21.95968 0-39.82336-17.86368-39.82336-39.82336 0-21.95456 17.86368-39.81824 39.82336-39.81824s39.82336 17.86368 39.82336 39.81824c0 21.95968-17.86368 39.82336-39.82336 39.82336z m0-64.28672a24.49408 24.49408 0 0 0-24.46336 24.45824c0 13.4912 10.97728 24.46336 24.46336 24.46336s24.46336-10.97728 24.46336-24.46336a24.49408 24.49408 0 0 0-24.46336-24.45824z" fill="#1D1E21" p-id="2491"></path><path d="M845.05088 530.00704m-34.65728 0a34.65728 34.65728 0 1 0 69.31456 0 34.65728 34.65728 0 1 0-69.31456 0Z" fill="#FFFFFF" p-id="2492"></path><path d="M845.05088 572.34432c-23.3472 0-42.33728-18.9952-42.33728-42.3424 0-23.34208 18.99008-42.33728 42.33728-42.33728s42.3424 18.99008 42.3424 42.33728c-0.00512 23.3472-19.00032 42.3424-42.3424 42.3424z m0-69.31456c-14.8736 0-26.97728 12.09856-26.97728 26.97728s12.09856 26.9824 26.97728 26.9824 26.9824-12.10368 26.9824-26.9824-12.1088-26.97728-26.9824-26.97728z" fill="#1D1E21" p-id="2493"></path><path d="M94.17728 255.70816L41.30816 202.83904 94.17728 149.9648l52.87424 52.87424z" fill="#FFFFFF" p-id="2494"></path><path d="M94.17728 263.38816c-2.03776 0-3.98848-0.80896-5.43232-2.24768L35.87584 208.26624a7.68 7.68 0 0 1 0-10.85952l52.86912-52.87424c2.88256-2.88256 7.98208-2.88256 10.85952 0l52.87424 52.87424a7.68 7.68 0 0 1 0 10.85952L99.6096 261.13536a7.68 7.68 0 0 1-5.43232 2.2528z m-42.0096-60.55424l42.0096 42.0096 42.01472-42.0096-42.01472-42.0096-42.0096 42.0096z" fill="#1D1E21" p-id="2495"></path></svg>